<mxfile host="Electron" modified="2024-03-18T13:14:53.699Z" agent="Mozilla/5.0 (Windows NT 10.0; Win64; x64) AppleWebKit/537.36 (KHTML, like Gecko) draw.io/23.1.5 Chrome/120.0.6099.109 Electron/28.1.0 Safari/537.36" etag="3bAzZ3ZW4kks4eISBpSp" version="23.1.5" type="device">
  <diagram name="第 1 页" id="W7LKi3kCcDvlifWE6I20">
    <mxGraphModel dx="759" dy="513" grid="1" gridSize="10" guides="1" tooltips="1" connect="1" arrows="1" fold="1" page="1" pageScale="1" pageWidth="827" pageHeight="1169" math="0" shadow="0">
      <root>
        <mxCell id="0" />
        <mxCell id="1" parent="0" />
        <mxCell id="Vi_bm6lGqJO_MhyT9k2u-4" value="" style="edgeStyle=orthogonalEdgeStyle;rounded=0;orthogonalLoop=1;jettySize=auto;html=1;" edge="1" parent="1" source="Vi_bm6lGqJO_MhyT9k2u-2" target="Vi_bm6lGqJO_MhyT9k2u-3">
          <mxGeometry relative="1" as="geometry" />
        </mxCell>
        <mxCell id="Vi_bm6lGqJO_MhyT9k2u-2" value="创建班级学生库，string数组&lt;br&gt;（这里创建了20个人）" style="rounded=0;whiteSpace=wrap;html=1;" vertex="1" parent="1">
          <mxGeometry x="315" y="130" width="160" height="50" as="geometry" />
        </mxCell>
        <mxCell id="Vi_bm6lGqJO_MhyT9k2u-6" value="" style="edgeStyle=orthogonalEdgeStyle;rounded=0;orthogonalLoop=1;jettySize=auto;html=1;" edge="1" parent="1" source="Vi_bm6lGqJO_MhyT9k2u-3" target="Vi_bm6lGqJO_MhyT9k2u-5">
          <mxGeometry relative="1" as="geometry" />
        </mxCell>
        <mxCell id="Vi_bm6lGqJO_MhyT9k2u-3" value="输入q，表示询问q次某位学生是否属于该班级" style="whiteSpace=wrap;html=1;rounded=0;" vertex="1" parent="1">
          <mxGeometry x="322.5" y="230" width="145" height="60" as="geometry" />
        </mxCell>
        <mxCell id="Vi_bm6lGqJO_MhyT9k2u-8" value="" style="edgeStyle=orthogonalEdgeStyle;rounded=0;orthogonalLoop=1;jettySize=auto;html=1;" edge="1" parent="1" source="Vi_bm6lGqJO_MhyT9k2u-5" target="Vi_bm6lGqJO_MhyT9k2u-7">
          <mxGeometry relative="1" as="geometry" />
        </mxCell>
        <mxCell id="Vi_bm6lGqJO_MhyT9k2u-10" value="" style="edgeStyle=orthogonalEdgeStyle;rounded=0;orthogonalLoop=1;jettySize=auto;html=1;" edge="1" parent="1" source="Vi_bm6lGqJO_MhyT9k2u-5" target="Vi_bm6lGqJO_MhyT9k2u-9">
          <mxGeometry relative="1" as="geometry" />
        </mxCell>
        <mxCell id="Vi_bm6lGqJO_MhyT9k2u-5" value="使用for循环对比学生库&lt;br&gt;中是否有询问的人" style="rhombus;whiteSpace=wrap;html=1;rounded=0;" vertex="1" parent="1">
          <mxGeometry x="308.75" y="330" width="172.5" height="90" as="geometry" />
        </mxCell>
        <mxCell id="Vi_bm6lGqJO_MhyT9k2u-7" value="有，输出Yes" style="whiteSpace=wrap;html=1;rounded=0;" vertex="1" parent="1">
          <mxGeometry x="200" y="470" width="100" height="40" as="geometry" />
        </mxCell>
        <mxCell id="Vi_bm6lGqJO_MhyT9k2u-9" value="没有，输出No" style="whiteSpace=wrap;html=1;rounded=0;" vertex="1" parent="1">
          <mxGeometry x="510" y="470" width="100" height="40" as="geometry" />
        </mxCell>
      </root>
    </mxGraphModel>
  </diagram>
</mxfile>
